<svg width="125" height="140" viewBox="0 0 125 140" fill="none" xmlns="http://www.w3.org/2000/svg">
<path d="M61.7241 3H70.3386L61.698 11.9442L53.0574 3H61.6631" stroke="#4A4A4A" stroke-width="5" stroke-miterlimit="10" stroke-linecap="round" stroke-linejoin="round"/>
<path d="M78.5795 91.6931H101.366C101.366 103.036 92.4899 112.223 81.5323 112.223C70.5748 112.223 61.699 103.036 61.699 91.6931" stroke="#4A4A4A" stroke-width="5" stroke-miterlimit="10" stroke-linecap="round" stroke-linejoin="round"/>
<path d="M61.6984 91.6931C61.6984 103.036 52.8139 112.223 41.8651 112.223C30.9162 112.223 22.0317 103.036 22.0317 91.6931H78.5093" stroke="#4A4A4A" stroke-width="5" stroke-miterlimit="10" stroke-linecap="round" stroke-linejoin="round"/>
<path d="M82.3333 60.4425H122C122 71.785 113.124 80.9726 102.167 80.9726C91.209 80.9726 82.3333 71.785 82.3333 60.4425Z" stroke="#4A4A4A" stroke-width="5" stroke-miterlimit="10" stroke-linecap="round" stroke-linejoin="round"/>
<path d="M42.666 60.4425H82.3327" stroke="#4A4A4A" stroke-width="5" stroke-miterlimit="10" stroke-linecap="round" stroke-linejoin="round"/>
<path d="M42.6664 60.4425C42.6664 71.785 33.7906 80.9726 22.8331 80.9726C11.8755 80.9726 2.99976 71.785 2.99976 60.4425H42.6664Z" stroke="#4A4A4A" stroke-width="5" stroke-miterlimit="10" stroke-linecap="round" stroke-linejoin="round"/>
<path d="M82.3327 60.4425C82.3327 71.785 73.4569 80.9726 62.4994 80.9726C51.5418 80.9726 42.666 71.785 42.666 60.4425" stroke="#4A4A4A" stroke-width="5" stroke-miterlimit="10" stroke-linecap="round" stroke-linejoin="round"/>
<path d="M44.9226 91.693C48.3109 91.684 54.7217 90.3135 58.5542 80.9727" stroke="#4A4A4A" stroke-width="5" stroke-miterlimit="10" stroke-linecap="round" stroke-linejoin="round"/>
<path d="M61.699 59.3334V11.9438" stroke="#4A4A4A" stroke-width="5" stroke-miterlimit="10" stroke-linecap="round" stroke-linejoin="round"/>
<path d="M78.5788 91.693H78.5004C75.1208 91.693 68.6839 90.3496 64.834 80.9727" stroke="#4A4A4A" stroke-width="5" stroke-miterlimit="10" stroke-linecap="round" stroke-linejoin="round"/>
<path d="M80.7303 112.305C80.7303 112.305 70.2431 109.609 64.834 122.998" stroke="#4A4A4A" stroke-width="5" stroke-miterlimit="10" stroke-linecap="round" stroke-linejoin="round"/>
<path d="M42.666 112.305C42.666 112.305 53.1532 109.609 58.5623 122.998" stroke="#4A4A4A" stroke-width="5" stroke-miterlimit="10" stroke-linecap="round" stroke-linejoin="round"/>
<path d="M68.0132 130.454C68.0132 134.07 65.1824 137 61.6983 137C58.2054 137 55.3833 134.07 55.3833 130.454C55.3833 126.839 58.2141 123.917 61.6983 123.917C65.1824 123.917 68.0132 126.839 68.0132 130.454Z" stroke="#4A4A4A" stroke-width="5" stroke-miterlimit="10" stroke-linecap="round" stroke-linejoin="round"/>
</svg>
