<svg width="91" height="140" viewBox="0 0 91 140" fill="none" xmlns="http://www.w3.org/2000/svg">
<path d="M59.2853 117.838H29.4164C28.1476 117.838 27.1185 118.817 27.1185 120.026C27.1185 121.234 28.1473 122.213 29.4164 122.213H59.2853C60.5541 122.213 61.5828 121.234 61.5828 120.026C61.5831 118.817 60.5541 117.838 59.2853 117.838Z" fill="#4A4A4A"/>
<path d="M59.2853 126.731H29.4164C28.1476 126.731 27.1185 127.71 27.1185 128.919C27.1185 130.127 28.1473 131.106 29.4164 131.106H59.2853C60.5541 131.106 61.5828 130.127 61.5828 128.919C61.5828 127.71 60.5541 126.731 59.2853 126.731Z" fill="#4A4A4A"/>
<path d="M51.3381 135.625H37.3264C36.0576 135.625 35.0286 136.604 35.0286 137.812C35.0286 139.021 36.0573 140 37.3264 140H51.3381C52.6069 140 53.6359 139.021 53.6359 137.812C53.6359 136.604 52.6069 135.625 51.3381 135.625Z" fill="#4A4A4A"/>
<path d="M45.4999 0C20.411 0 -0.000244141 19.4331 -0.000244141 43.3197C-0.000244141 52.1106 2.77207 60.5067 8.01691 67.6003C12.7918 74.0581 19.3739 79.1467 27.1188 82.3884V93.3811H24.8213C23.5524 93.3811 22.5234 94.3606 22.5234 95.5689V111.132C22.5234 112.34 23.5521 113.32 24.8213 113.32H63.8804C65.1492 113.32 66.1782 112.341 66.1782 111.132V95.5689C66.1782 94.3609 65.1495 93.3811 63.8804 93.3811H61.5828V82.4807C69.9463 79.5107 77.0595 74.5998 82.2272 68.2063C87.966 61.1062 90.9998 52.5006 90.9998 43.32C90.9998 19.4331 70.5885 0 45.4999 0ZM61.5828 108.944H27.1191V97.7561H61.5828V108.944ZM78.5855 65.5377C73.6558 71.6366 66.7286 76.2452 58.5533 78.8641C57.5933 79.1715 56.9898 80.0238 56.9898 80.9373H56.9877V93.3809H52.3929V54.6875C52.3929 53.4795 51.3641 52.4998 50.095 52.4998C48.8262 52.4998 47.7972 53.4792 47.7972 54.6875V93.3811H40.9045V54.6875C40.9045 53.4795 39.8757 52.4998 38.6069 52.4998C37.3381 52.4998 36.3091 53.4792 36.3091 54.6875V93.3811H31.7142V80.9376H31.713C31.7127 80.0707 31.169 79.2501 30.2723 78.9075C22.7272 76.0249 16.3306 71.244 11.7745 65.0819C7.0776 58.7293 4.59518 51.2043 4.59518 43.32C4.59518 21.8457 22.9447 4.37577 45.4996 4.37577C68.0545 4.37577 86.4043 21.8454 86.4043 43.3197C86.4043 51.5266 83.701 59.2093 78.5855 65.5377Z" fill="#4A4A4A"/>
<path d="M48.2495 13.1254C48.2495 11.9173 47.2207 10.9376 45.9516 10.9376C34.6325 10.9376 24.0173 16.706 18.2482 25.9912C17.6021 27.031 17.9637 28.3727 19.0558 28.9876C19.4228 29.1944 19.8255 29.293 20.2235 29.293C21.0091 29.293 21.7744 28.9093 22.2029 28.2187C27.1492 20.258 36.2494 15.3128 45.9516 15.3128C47.2207 15.3128 48.2495 14.3334 48.2495 13.1254Z" fill="#4A4A4A"/>
<path d="M17.4102 32.8704C16.1774 32.5938 14.9377 33.3207 14.646 34.4964C14.0749 36.7984 13.785 39.1759 13.785 41.5625C13.785 42.7705 14.8138 43.7502 16.0829 43.7502C17.3517 43.7502 18.3808 42.7708 18.3808 41.5625C18.3808 39.5142 18.6286 37.4756 19.1184 35.5021C19.4101 34.3267 18.6454 33.1481 17.4102 32.8704Z" fill="#4A4A4A"/>
<path d="M54.3999 42.2031C53.969 41.7928 53.3847 41.5623 52.7755 41.5623C52.1663 41.5623 51.5817 41.7928 51.1511 42.2031L48.5636 44.6666L45.9762 42.2031C45.5452 41.7928 44.9609 41.5623 44.3517 41.5623C43.7425 41.5623 43.1579 41.7928 42.7273 42.2031L40.1395 44.6666L37.5518 42.2031C37.1208 41.7928 36.5365 41.5623 35.9273 41.5623C35.3181 41.5623 34.7335 41.7928 34.3029 42.2031L30.0907 46.2137C29.1934 47.068 29.1934 48.4532 30.0907 49.3072C30.9883 50.1618 32.4429 50.1618 33.3399 49.3072L35.9273 46.8435L38.5148 49.3072C38.9457 49.7175 39.53 49.9481 40.1392 49.9481C40.7484 49.9481 41.333 49.7175 41.7637 49.3072L44.3517 46.8435L46.9392 49.3072C47.3701 49.7175 47.9544 49.9481 48.5636 49.9481C49.1728 49.9481 49.7574 49.7175 50.188 49.3072L52.7755 46.8435L55.3636 49.3072C55.8119 49.7344 56.4001 49.9481 56.988 49.9481C57.5759 49.9481 58.1641 49.7344 58.6124 49.3072C59.5097 48.4529 59.5097 47.068 58.6124 46.2137L54.3999 42.2031Z" fill="#4A4A4A"/>
</svg>
