<svg width="75" height="144" viewBox="0 0 75 144" fill="none" xmlns="http://www.w3.org/2000/svg">
<path d="M74.2172 0.955406C73.6252 0.347344 72.7707 0 71.8748 0H3.12456C2.229 0 1.37453 0.347344 0.782476 0.955406C0.188863 1.56206 -0.0872432 2.36981 0.0238843 3.17362L6.2738 48.3503C6.46897 49.7633 7.79814 50.8236 9.37447 50.8236H34.3747V138.353H21.8746V144H34.3747H40.6247H53.1248V138.353H40.6247V50.8236H65.6249C67.2013 50.8236 68.5301 49.7633 68.7256 48.3503L74.9755 3.17391C75.087 2.36981 74.8108 1.56206 74.2172 0.955406ZM62.866 45.1763H40.6247H34.3747H12.1334L6.66445 5.64694H68.3349L62.866 45.1763Z" fill="#4A4A4A"/>
</svg>
