<svg width="132" height="137" viewBox="0 0 132 137" fill="none" xmlns="http://www.w3.org/2000/svg">
<g clip-path="url(#clip0_1_457)">
<path d="M105.314 51.7994C95.4224 42.5522 82.4802 37.2143 68.6292 36.6138L67.5 36.6138C65.9998 36.6136 67.452 36.6136 65.9998 36.6136C64.5475 36.6136 64 36.5863 63.3704 36.6135C49.5194 37.2142 36.5772 42.5519 26.686 51.7992C16.0942 61.7017 10.2612 74.8904 10.2612 88.9363C10.2612 90.4436 11.4384 91.6654 12.8907 91.6654H43.3858C44.8071 102.282 54.4065 110.519 65.9998 110.519C77.5931 110.519 87.1925 102.282 88.6138 91.6654H119.109C120.561 91.6654 121.738 90.4436 121.738 88.9363C121.739 74.8906 115.905 61.702 105.314 51.7994ZM65.9998 105.061C57.3417 105.061 50.1288 99.2614 48.7142 91.6656H83.2851C81.8707 99.2611 74.6579 105.061 65.9998 105.061ZM15.6044 86.2076C17.1299 61.5992 39.1504 42.0136 65.9998 42.0136C92.8492 42.0136 114.87 61.5992 116.395 86.2076H15.6044Z" fill="#4A4A4A"/>
<path d="M65.7223 114.847C64.2701 114.847 63.0929 116.069 63.0929 117.576V134.271C63.0929 135.778 64.2701 137 65.7223 137C67.1746 137 68.3517 135.778 68.3517 134.271V117.576C68.3517 116.069 67.1746 114.847 65.7223 114.847Z" fill="#4A4A4A"/>
<path d="M98.4034 119.19L97.7638 118.525C96.7369 117.46 95.0719 117.46 94.0448 118.525C93.0179 119.591 93.0179 121.319 94.0448 122.385L94.6847 123.049C95.1983 123.582 95.8712 123.849 96.544 123.849C97.2169 123.849 97.8901 123.582 98.4034 123.049C99.4303 121.984 99.4303 120.256 98.4034 119.19Z" fill="#4A4A4A"/>
<path d="M91.9872 112.53L87.0297 107.384C86.0029 106.319 84.3379 106.319 83.3108 107.384C82.2839 108.45 82.2839 110.178 83.3108 111.244L88.2685 116.39C88.7821 116.923 89.455 117.189 90.1279 117.189C90.8008 117.189 91.4739 116.923 91.9872 116.39C93.0141 115.324 93.0141 113.596 91.9872 112.53Z" fill="#4A4A4A"/>
<path d="M47.8088 108.199C46.7822 107.133 45.1172 107.133 44.0901 108.199L32.7162 120.003C31.6893 121.069 31.6893 122.797 32.7162 123.863C33.2298 124.396 33.9026 124.663 34.5755 124.663C35.2484 124.663 35.9216 124.396 36.4349 123.863L47.8091 112.058C48.8357 110.993 48.8357 109.265 47.8088 108.199Z" fill="#4A4A4A"/>
</g>
<defs>
<clipPath id="clip0_1_457">
<rect width="132" height="137" fill="white" transform="translate(-0.000244141)"/>
</clipPath>
</defs>
</svg>
