<svg width="127" height="131" viewBox="0 0 127 131" fill="none" xmlns="http://www.w3.org/2000/svg">
<path d="M113.145 0V19.6257C107.356 20.6519 102.787 25.4552 101.808 31.537H83.127C66.0813 31.537 52.109 45.4788 50.9175 63.0741H43.8725C19.6801 63.0741 -0.000244141 83.7502 -0.000244141 109.167V111.593H20.7816H32.4633C33.6178 122.492 42.4316 131 53.1088 131C63.7861 131 72.6022 122.492 73.7544 111.593H85.4361H106.218V109.167C106.218 83.7502 86.5376 63.0741 62.3452 63.0741H55.5357C56.7156 48.1546 68.6282 36.3889 83.127 36.3889H101.808C102.784 42.4707 107.356 47.2716 113.145 48.3002V67.9259H127V0H113.145ZM4.6849 106.741C5.70552 88.3692 18.237 73.2314 34.7839 69.0879C26.3372 75.2207 20.7816 85.4557 20.7816 97.037V106.741H4.6849ZM53.1088 126.148C44.9785 126.148 38.2337 119.812 37.1092 111.593H69.1062C67.984 119.812 61.2392 126.148 53.1088 126.148ZM73.8907 106.741H32.327H25.3998V97.037C25.3998 80.9847 37.8296 67.9259 53.1088 67.9259C68.3881 67.9259 80.8179 80.9847 80.8179 97.037V106.741H73.8907ZM101.533 106.741H85.4361V97.037C85.4361 85.4557 79.8804 75.2207 71.4338 69.0879C87.9784 73.2314 100.512 88.3692 101.533 106.741ZM106.218 33.963C106.218 29.4507 109.167 25.6445 113.145 24.5674V43.3586C109.167 42.2815 106.218 38.4752 106.218 33.963ZM122.382 63.0741H117.763V48.5185V19.4074V4.85185H122.382V63.0741Z" fill="#4A4A4A"/>
</svg>
