<svg width="132" height="145" viewBox="0 0 132 145" fill="none" xmlns="http://www.w3.org/2000/svg">
<g clip-path="url(#clip0_1_475)">
<path d="M102.982 78.7573L92.6561 10.8197C92.4476 9.44882 91.3679 8.44375 90.1021 8.44375H70.8448H61.6208V5.68842H69.4962C70.9261 5.68842 72.0854 4.41493 72.0854 2.84421C72.0854 1.2735 70.9261 0 69.4962 0H48.5669C47.137 0 45.9777 1.2735 45.9777 2.84421C45.9777 4.41493 47.137 5.68842 48.5669 5.68842H56.4423V8.44375H47.2183H27.961C26.6955 8.44375 25.6155 9.44847 25.4071 10.8197L15.0502 78.9624C14.9246 79.7872 15.1363 80.6305 15.6283 81.2687C16.1202 81.9069 16.8429 82.2748 17.6038 82.2748H43.2801H56.442V127.918H38.4794C34.1965 127.918 30.7117 131.746 30.7117 136.45V142.156C30.7117 143.727 31.871 144.991 33.3009 144.991C33.3683 144.991 33.4352 144.989 33.5013 144.983H84.5583C84.6518 144.994 84.7463 145 84.8425 145C86.2723 145 87.4317 143.727 87.4317 142.156V136.451C87.4317 131.746 83.9469 127.918 79.664 127.918H61.6205V82.2748H74.7824H100.459C100.461 82.2748 100.463 82.2748 100.465 82.2748C101.895 82.2748 103.054 81.0013 103.054 79.4306C103.055 79.1988 103.029 78.9734 102.982 78.7573ZM82.2536 136.45V139.295H35.8905V136.45C35.8905 134.882 37.0521 133.606 38.4797 133.606H79.6644C81.092 133.606 82.2536 134.882 82.2536 136.45ZM30.1541 14.1322H44.4595L40.8504 76.5864H20.6614L30.1541 14.1322ZM77.213 76.5864L74.4228 28.3013C74.3322 26.7338 73.1046 25.5471 71.6747 25.6427C70.2477 25.7422 69.1641 27.094 69.2544 28.6615L72.0239 76.5861H46.0395L49.6483 14.1318H68.4146L68.6379 18.0014C68.7285 19.5689 69.9516 20.757 71.386 20.66C72.813 20.5604 73.8966 19.2087 73.8063 17.6412L73.6037 14.1322H87.9091L97.4014 76.5864H77.213Z" fill="#4A4A4A"/>
</g>
<defs>
<clipPath id="clip0_1_475">
<rect width="132" height="145" fill="white" transform="translate(-0.000244141)"/>
</clipPath>
</defs>
</svg>
