<svg width="31" height="31" viewBox="0 0 31 31" fill="none" xmlns="http://www.w3.org/2000/svg">
<path d="M15.1796 19.8413C15.352 19.9979 15.568 20.0748 15.7835 20.0748C15.8177 20.0748 15.8515 20.0681 15.8861 20.0645C15.8987 20.0649 15.9118 20.0681 15.9244 20.0681C16.1696 20.0681 16.414 19.9682 16.5913 19.7724L23.4452 12.2106C23.7791 11.8425 23.7512 11.2732 23.3827 10.9398C23.0146 10.6054 22.4453 10.6342 22.1119 11.0023L15.7952 17.9706L8.82606 11.6539C8.45751 11.3191 7.88871 11.3479 7.55526 11.7165C7.22136 12.0846 7.24926 12.6538 7.61781 12.9873L15.1796 19.8413Z" fill="#6CACC0"/>
<path d="M15.5 30.4463C23.8021 30.4463 30.5561 23.6923 30.5561 15.3907C30.5561 7.08865 23.8021 0.334595 15.5 0.334595C7.1984 0.334595 0.444351 7.08865 0.444351 15.3907C0.444351 23.6923 7.1984 30.4463 15.5 30.4463ZM15.5 2.13459C22.8094 2.13459 28.7561 8.08135 28.7561 15.3907C28.7561 22.6996 22.8094 28.6463 15.5 28.6463C8.1911 28.6463 2.24435 22.6996 2.24435 15.3907C2.24435 8.08135 8.1911 2.13459 15.5 2.13459Z" fill="#6CACC0"/>
</svg>
