<svg width="132" height="72" viewBox="0 0 132 72" fill="none" xmlns="http://www.w3.org/2000/svg">
<path d="M34.568 54L34.52 31.728L23.48 50.16H20.696L9.656 32.016V54H3.752V20.4H8.888L22.184 42.624L35.336 20.4H40.424L40.52 54H34.568ZM65.3788 54.48C61.9868 54.48 58.9148 53.744 56.1628 52.272C53.4428 50.768 51.2988 48.704 49.7308 46.08C48.1948 43.456 47.4268 40.496 47.4268 37.2C47.4268 33.904 48.2108 30.944 49.7788 28.32C51.3468 25.696 53.4908 23.648 56.2108 22.176C58.9628 20.672 62.0348 19.92 65.4268 19.92C68.1788 19.92 70.6908 20.4 72.9628 21.36C75.2348 22.32 77.1548 23.712 78.7228 25.536L74.6908 29.328C72.2588 26.704 69.2668 25.392 65.7148 25.392C63.4108 25.392 61.3468 25.904 59.5228 26.928C57.6988 27.92 56.2748 29.312 55.2508 31.104C54.2268 32.896 53.7148 34.928 53.7148 37.2C53.7148 39.472 54.2268 41.504 55.2508 43.296C56.2748 45.088 57.6988 46.496 59.5228 47.52C61.3468 48.512 63.4108 49.008 65.7148 49.008C69.2668 49.008 72.2588 47.68 74.6908 45.024L78.7228 48.864C77.1548 50.688 75.2188 52.08 72.9148 53.04C70.6428 54 68.1308 54.48 65.3788 54.48Z" fill="#FFF9DC"/>
<g clip-path="url(#clip0_27_492)">
<path d="M111.983 30.6367C114.244 34.0237 114.581 38.1458 113.251 41.7675L118.014 43.3747C119.87 38.3206 119.406 32.5412 116.238 27.7962L111.983 30.6367ZM94.4379 27.3904C100.313 23.4685 108.168 24.9219 111.983 30.6367L116.238 27.7962C110.897 19.7955 99.8998 17.7607 91.6749 23.2514L94.4379 27.3904ZM90.7079 44.8392C86.8929 39.1244 88.5629 31.3123 94.4379 27.3904L91.6749 23.2514C83.4499 28.7421 81.1119 39.679 86.4528 47.6797L90.7079 44.8392ZM100.502 50.2781C96.6467 50.1176 92.9689 48.2261 90.7079 44.8392L86.4528 47.6797C89.6204 52.4246 94.7798 55.0698 100.159 55.2937L100.502 50.2781ZM112.672 59.3252C110.493 56.2079 107.741 53.5426 104.563 51.4583L101.685 55.6642C104.346 57.4096 106.651 59.6412 108.476 62.2516L112.672 59.3252ZM116.925 54.895C115.712 56.9683 113.597 58.3803 111.216 58.7058L111.785 63.6783C115.752 63.1356 119.277 60.7825 121.3 57.3267L116.925 54.895ZM112.783 45.9705C113.49 49.7048 114.896 53.2691 116.939 56.4771L121.251 53.7238C119.54 51.0374 118.362 48.053 117.771 44.926L112.783 45.9705ZM121.3 57.3267C121.977 56.1681 121.925 54.7817 121.251 53.7238L116.939 56.4771C116.652 56.0265 116.619 55.4182 116.925 54.895L121.3 57.3267ZM108.476 62.2516C109.195 63.2796 110.455 63.8602 111.785 63.6783L111.216 58.7058C111.817 58.6237 112.366 58.8875 112.672 59.3252L108.476 62.2516ZM100.159 55.2937C100.637 55.3134 100.916 55.3256 101.119 55.3425C101.323 55.3596 101.294 55.3711 101.185 55.3363L102.854 50.5552C102.123 50.3215 101.219 50.3079 100.502 50.2781L100.159 55.2937ZM104.563 51.4583C104.134 51.1774 103.569 50.7834 102.854 50.5552L101.185 55.3363C101.132 55.3194 101.114 55.3035 101.179 55.3413C101.219 55.3639 101.275 55.3981 101.362 55.4538C101.45 55.5104 101.552 55.5766 101.685 55.6642L104.563 51.4583ZM113.251 41.7675C113.003 42.4417 112.669 43.2813 112.604 44.0466L117.66 44.3384C117.65 44.4522 117.629 44.4743 117.691 44.2795C117.753 44.0858 117.849 43.8231 118.014 43.3747L113.251 41.7675ZM117.771 44.926C117.741 44.7689 117.719 44.6502 117.701 44.5469C117.683 44.4449 117.672 44.3799 117.667 44.335C117.657 44.2601 117.665 44.2832 117.66 44.3384L112.604 44.0466C112.541 44.7936 112.688 45.467 112.783 45.9705L117.771 44.926Z" fill="#FFF9DC"/>
<path d="M116.001 45.9052C113.82 50.9828 108.795 54.3375 103.269 54.4043" stroke="#FFF9DC" stroke-width="5"/>
</g>
<defs>
<clipPath id="clip0_27_492">
<rect width="61.3923" height="59.7183" fill="white" transform="translate(62 34.0859) rotate(-33.7255)"/>
</clipPath>
</defs>
</svg>
