<svg width="12" height="18" viewBox="0 0 12 18" fill="none" xmlns="http://www.w3.org/2000/svg">
<path d="M0.263603 0.213422C0.0946095 0.35295 0 0.540255 0 0.735297C0 0.93034 0.0946095 1.11764 0.263603 1.25717L9.70504 9.06811L0.263603 16.8775C0.0946095 17.017 0 17.2043 0 17.3994C0 17.5944 0.0946095 17.7817 0.263603 17.9212C0.345745 17.9893 0.443956 18.0433 0.552439 18.0803C0.660922 18.1172 0.777478 18.1362 0.895227 18.1362C1.01298 18.1362 1.12953 18.1172 1.23802 18.0803C1.3465 18.0433 1.44471 17.9893 1.52685 17.9212L11.567 9.61342C11.7433 9.46753 11.842 9.27185 11.842 9.06811C11.842 8.86437 11.7433 8.66869 11.567 8.5228L1.52685 0.214985C1.44471 0.146948 1.3465 0.0928716 1.23802 0.0559475C1.12953 0.0190235 1.01298 0 0.895227 0C0.777478 0 0.660922 0.0190235 0.552439 0.0559475C0.443956 0.0928716 0.345745 0.146948 0.263603 0.214985V0.213422Z" fill="#EB1D36"/>
</svg>
