<svg width="35" height="35" viewBox="0 0 35 35" fill="none" xmlns="http://www.w3.org/2000/svg">
<path d="M0.676786 1.18118H31.6183C32.957 1.18118 34.0423 2.26644 34.0423 3.60517V32.1227C34.0423 33.4614 32.957 34.5467 31.6183 34.5467H0.676786V1.18118Z" fill="#D6E4E5" stroke="#EB1D36" stroke-width="0.855526"/>
<g clip-path="url(#clip0_27_1850)">
<path d="M19.2285 11.7122C19.1321 11.7918 19.0781 11.8986 19.0781 12.0098C19.0781 12.1211 19.1321 12.2279 19.2285 12.3075L24.6134 16.7625L19.2285 21.2165C19.1321 21.2961 19.0781 21.4029 19.0781 21.5142C19.0781 21.6254 19.1321 21.7323 19.2285 21.8118C19.2753 21.8506 19.3313 21.8815 19.3932 21.9025C19.4551 21.9236 19.5216 21.9345 19.5887 21.9345C19.6559 21.9345 19.7224 21.9236 19.7842 21.9025C19.8461 21.8815 19.9021 21.8506 19.949 21.8118L25.6754 17.0735C25.7759 16.9903 25.8322 16.8787 25.8322 16.7625C25.8322 16.6463 25.7759 16.5346 25.6754 16.4514L19.949 11.7131C19.9021 11.6743 19.8461 11.6434 19.7842 11.6224C19.7224 11.6013 19.6559 11.5905 19.5887 11.5905C19.5216 11.5905 19.4551 11.6013 19.3932 11.6224C19.3313 11.6434 19.2753 11.6743 19.2285 11.7131V11.7122Z" fill="#EB1D36"/>
</g>
<defs>
<clipPath id="clip0_27_1850">
<rect width="17.6809" height="14.2588" fill="white" transform="translate(8.24121 7.59802)"/>
</clipPath>
</defs>
</svg>
