<svg width="24" height="23" viewBox="0 0 24 23" fill="none" xmlns="http://www.w3.org/2000/svg">
<g clip-path="url(#clip0_1_1128)">
<path d="M19.2878 8.47546H4.26895C4.1765 8.47546 4.08495 8.45725 3.99954 8.42187C3.91412 8.38649 3.83651 8.33464 3.77114 8.26926C3.70577 8.20389 3.65391 8.12628 3.61853 8.04087C3.58315 7.95545 3.56494 7.8639 3.56494 7.77145C3.56494 7.679 3.58315 7.58745 3.61853 7.50204C3.65391 7.41663 3.70577 7.33902 3.77114 7.27364C3.83651 7.20827 3.91412 7.15642 3.99954 7.12103C4.08495 7.08565 4.1765 7.06744 4.26895 7.06744H19.2878C19.4745 7.06744 19.6536 7.14162 19.7855 7.27364C19.9176 7.40568 19.9918 7.58474 19.9918 7.77145C19.9918 7.95817 19.9176 8.13723 19.7855 8.26926C19.6536 8.40129 19.4745 8.47546 19.2878 8.47546Z" fill="#EB1D36"/>
<path d="M15.9461 19.7865H7.61065C7.31318 19.8069 7.01462 19.768 6.7323 19.6721C6.44998 19.5761 6.18951 19.4252 5.96598 19.2278C5.74245 19.0305 5.56032 18.7907 5.43015 18.5225C5.29997 18.2543 5.22434 17.9628 5.20764 17.6651V7.81842C5.20764 7.6317 5.28182 7.45264 5.41384 7.32062C5.54587 7.18858 5.72494 7.11442 5.91165 7.11442C6.09836 7.11442 6.27743 7.18858 6.40946 7.32062C6.54148 7.45264 6.61566 7.6317 6.61566 7.81842V17.6651C6.61566 18.0499 7.05683 18.3785 7.55433 18.3785H15.8898C16.4154 18.3785 16.8284 18.0499 16.8284 17.6651V7.81842C16.8284 7.61677 16.9085 7.42337 17.0511 7.28079C17.1937 7.13819 17.3872 7.0581 17.5888 7.0581C17.7904 7.0581 17.9839 7.13819 18.1265 7.28079C18.269 7.42337 18.3491 7.61677 18.3491 7.81842V17.6651C18.3324 17.9628 18.2567 18.2543 18.1266 18.5225C17.9964 18.7907 17.8143 19.0305 17.5907 19.2278C17.3673 19.4252 17.1068 19.5761 16.8244 19.6721C16.5422 19.768 16.2436 19.8069 15.9461 19.7865ZM16.0587 7.58376C15.9659 7.58501 15.8738 7.56767 15.7878 7.53274C15.7019 7.4978 15.6238 7.44599 15.5581 7.38036C15.4925 7.31474 15.4407 7.23662 15.4058 7.15064C15.3708 7.06466 15.3535 6.97255 15.3547 6.87975V5.48112C15.3547 5.09626 14.9042 4.76773 14.4161 4.76773H9.16885C8.65258 4.76773 8.23018 5.09626 8.23018 5.48112V6.87975C8.23018 7.06646 8.156 7.24552 8.02398 7.37756C7.89195 7.50958 7.71288 7.58376 7.52617 7.58376C7.33946 7.58376 7.16039 7.50958 7.02836 7.37756C6.89634 7.24552 6.82216 7.06646 6.82216 6.87975V5.48112C6.85851 4.89098 7.12445 4.33853 7.56305 3.94203C8.00166 3.54553 8.57805 3.33651 9.16885 3.35971H14.3879C14.9835 3.32891 15.5671 3.53451 16.0118 3.93179C16.4565 4.32906 16.7264 4.88588 16.7627 5.48112V6.87975C16.764 6.97299 16.7467 7.06554 16.7119 7.15204C16.677 7.23854 16.6254 7.31727 16.5599 7.38363C16.4944 7.45 16.4164 7.5027 16.3303 7.53866C16.2443 7.57463 16.1519 7.59315 16.0587 7.59314V7.58376Z" fill="#EB1D36"/>
<path d="M10.1076 16.2664C9.92162 16.264 9.74396 16.1891 9.61245 16.0576C9.48095 15.9261 9.406 15.7484 9.40356 15.5624V11.3102C9.40356 11.1235 9.47774 10.9444 9.60976 10.8124C9.74179 10.6804 9.92087 10.6062 10.1076 10.6062C10.2943 10.6062 10.4734 10.6804 10.6054 10.8124C10.7374 10.9444 10.8116 11.1235 10.8116 11.3102V15.553C10.8128 15.6462 10.7955 15.7388 10.7607 15.8253C10.7259 15.9118 10.6742 15.9905 10.6087 16.0569C10.5432 16.1233 10.4652 16.1759 10.3791 16.212C10.2931 16.2479 10.2008 16.2664 10.1076 16.2664Z" fill="#EB1D36"/>
</g>
<defs>
<clipPath id="clip0_1_1128">
<rect width="22.5282" height="22.5282" fill="white" transform="translate(0.513916 0.308777)"/>
</clipPath>
</defs>
</svg>
