<svg width="60" height="58" viewBox="0 0 60 58" fill="none" xmlns="http://www.w3.org/2000/svg">
<path d="M26.25 37.4583L23.75 29" stroke="#D6E4E5" stroke-width="2.5" stroke-linecap="round"/>
<path d="M21.25 10.875L16.25 18.125M38.75 10.875L43.75 18.125" stroke="#D6E4E5" stroke-width="2.5" stroke-linecap="round"/>
<path d="M33.75 37.4583L36.25 29" stroke="#D6E4E5" stroke-width="2.5" stroke-linecap="round"/>
<path d="M11.25 22.9583C12.7107 22.9583 13.9754 23.939 14.2923 25.3174L17.0098 37.1385C17.8441 40.7676 18.2612 42.5821 19.6322 43.6452C21.0033 44.7083 22.9261 44.7083 26.7718 44.7083H33.2282C37.074 44.7083 38.9968 44.7083 40.3678 43.6452C41.7388 42.5821 42.156 40.7676 42.9903 37.1385L45.7078 25.3174C46.0245 23.939 47.2893 22.9583 48.75 22.9583" stroke="#D6E4E5" stroke-width="2.5" stroke-linecap="round"/>
<path d="M48.75 22.9583H11.25C9.8693 22.9583 8.75 21.8763 8.75 20.5417C8.75 19.207 9.8693 18.125 11.25 18.125H48.75C50.1307 18.125 51.25 19.207 51.25 20.5417C51.25 21.8763 50.1307 22.9583 48.75 22.9583Z" stroke="#D6E4E5" stroke-width="2.5" stroke-linecap="round"/>
</svg>
