<svg width="35" height="35" viewBox="0 0 35 35" fill="none" xmlns="http://www.w3.org/2000/svg">
<path d="M3.45234 1.18118H34.3939V34.5467H3.45234C2.11361 34.5467 1.02835 33.4614 1.02835 32.1227V3.60517C1.02835 2.26644 2.11361 1.18118 3.45234 1.18118Z" fill="#D6E4E5" stroke="#EB1D36" stroke-width="0.855526"/>
<g clip-path="url(#clip0_27_1843)">
<path d="M18.1309 11.7122C18.2273 11.7918 18.2812 11.8986 18.2812 12.0098C18.2812 12.1211 18.2273 12.2279 18.1309 12.3075L12.746 16.7625L18.1309 21.2165C18.2273 21.2961 18.2812 21.4029 18.2812 21.5142C18.2812 21.6254 18.2273 21.7323 18.1309 21.8118C18.0841 21.8506 18.028 21.8815 17.9662 21.9025C17.9043 21.9236 17.8378 21.9345 17.7707 21.9345C17.7035 21.9345 17.637 21.9236 17.5751 21.9025C17.5133 21.8815 17.4573 21.8506 17.4104 21.8118L11.684 17.0735C11.5834 16.9903 11.5272 16.8787 11.5272 16.7625C11.5272 16.6463 11.5834 16.5346 11.684 16.4514L17.4104 11.7131C17.4573 11.6743 17.5133 11.6434 17.5751 11.6224C17.637 11.6013 17.7035 11.5905 17.7707 11.5905C17.8378 11.5905 17.9043 11.6013 17.9662 11.6224C18.028 11.6434 18.0841 11.6743 18.1309 11.7131V11.7122Z" fill="#EB1D36"/>
</g>
<defs>
<clipPath id="clip0_27_1843">
<rect width="17.6809" height="14.2588" fill="white" transform="matrix(-1 0 0 1 29.1182 7.59802)"/>
</clipPath>
</defs>
</svg>
