<svg width="33" height="33" viewBox="0 0 33 33" fill="none" xmlns="http://www.w3.org/2000/svg">
<path d="M19.6086 4.65679C21.229 6.09188 22.3772 7.99092 22.9001 10.1008C23.423 12.2107 23.2958 14.4311 22.5354 16.4662C21.775 18.5013 20.4175 20.2543 18.6439 21.4917C16.8704 22.729 14.765 23.3918 12.6083 23.3918C10.4517 23.3918 8.34625 22.729 6.57269 21.4917C4.79912 20.2543 3.44168 18.5013 2.68128 16.4662C1.92087 14.4311 1.79364 12.2107 2.31653 10.1008C2.83942 7.99092 3.98759 6.09188 5.60802 4.65679C7.54461 2.94424 10.0326 2 12.6083 2C15.1841 2 17.672 2.94424 19.6086 4.65679Z" stroke="#EFF5F5" stroke-width="2.523" stroke-miterlimit="10" stroke-linecap="round" stroke-linejoin="round"/>
<path d="M9.4582 16.6251C8.45058 16.1965 7.62106 15.4295 7.11046 14.4544C6.59986 13.4792 6.43965 12.3559 6.657 11.2751C6.87435 10.1943 7.45588 9.22271 8.30288 8.52516C9.14988 7.82761 10.2102 7.44711 11.3037 7.44824" stroke="#EFF5F5" stroke-width="2.523" stroke-miterlimit="10" stroke-linecap="round" stroke-linejoin="round"/>
<path d="M23.3635 21.6307L21.677 23.3314C21.3678 23.6397 20.9505 23.8126 20.5156 23.8126C20.0808 23.8126 19.6634 23.6397 19.3542 23.3314C19.0485 23.0195 18.877 22.5987 18.877 22.1602C18.877 21.7217 19.0485 21.3008 19.3542 20.989L21.0407 19.2884C21.3499 18.9801 21.7672 18.8071 22.2021 18.8071C22.6369 18.8071 23.0543 18.9801 23.3635 19.2884C23.6693 19.6002 23.8408 20.0211 23.8408 20.4596C23.8408 20.8981 23.6693 21.3189 23.3635 21.6307Z" stroke="#EFF5F5" stroke-width="2.523" stroke-miterlimit="10" stroke-linecap="round" stroke-linejoin="round"/>
<path d="M30.5226 30.5186C30.3726 30.6711 30.1942 30.7921 29.9976 30.8747C29.801 30.9573 29.5901 30.9999 29.3771 30.9999C29.1641 30.9999 28.9532 30.9573 28.7566 30.8747C28.56 30.7921 28.3816 30.6711 28.2316 30.5186L22.7268 24.9676C22.5756 24.8163 22.4555 24.6364 22.3736 24.4381C22.2917 24.2399 22.2495 24.0272 22.2495 23.8125C22.2495 23.5977 22.2917 23.385 22.3736 23.1868C22.4555 22.9885 22.5756 22.8086 22.7268 22.6573C22.8768 22.5048 23.0552 22.3838 23.2518 22.3012C23.4484 22.2186 23.6593 22.176 23.8723 22.176C24.0853 22.176 24.2962 22.2186 24.4928 22.3012C24.6894 22.3838 24.8678 22.5048 25.0178 22.6573L30.5226 28.2083C30.6738 28.3596 30.7939 28.5395 30.8758 28.7378C30.9577 28.936 30.9999 29.1487 30.9999 29.3635C30.9999 29.5782 30.9577 29.7909 30.8758 29.9892C30.7939 30.1874 30.6738 30.3673 30.5226 30.5186Z" stroke="#EFF5F5" stroke-width="2.523" stroke-miterlimit="10" stroke-linecap="round" stroke-linejoin="round"/>
<path d="M16.1403 7.25586H26.0998" stroke="#EFF5F5" stroke-width="2.523" stroke-miterlimit="10" stroke-linecap="round" stroke-linejoin="round"/>
</svg>
