<svg width="76" height="36" viewBox="0 0 76 36" fill="none" xmlns="http://www.w3.org/2000/svg">
<path d="M31.568 35L31.52 12.728L20.48 31.16H17.696L6.656 13.016V35H0.752V1.4H5.888L19.184 23.624L32.336 1.4H37.424L37.52 35H31.568ZM62.3788 35.48C58.9868 35.48 55.9148 34.744 53.1628 33.272C50.4428 31.768 48.2988 29.704 46.7308 27.08C45.1948 24.456 44.4268 21.496 44.4268 18.2C44.4268 14.904 45.2108 11.944 46.7788 9.32C48.3468 6.696 50.4908 4.648 53.2108 3.176C55.9628 1.672 59.0348 0.919998 62.4268 0.919998C65.1788 0.919998 67.6908 1.4 69.9628 2.36C72.2348 3.32 74.1548 4.712 75.7228 6.536L71.6908 10.328C69.2588 7.704 66.2668 6.392 62.7148 6.392C60.4108 6.392 58.3468 6.904 56.5228 7.928C54.6988 8.92 53.2748 10.312 52.2508 12.104C51.2268 13.896 50.7148 15.928 50.7148 18.2C50.7148 20.472 51.2268 22.504 52.2508 24.296C53.2748 26.088 54.6988 27.496 56.5228 28.52C58.3468 29.512 60.4108 30.008 62.7148 30.008C66.2668 30.008 69.2588 28.68 71.6908 26.024L75.7228 29.864C74.1548 31.688 72.2188 33.08 69.9148 34.04C67.6428 35 65.1308 35.48 62.3788 35.48Z" fill="#FFF9DC"/>
</svg>
