<svg width="85" height="84" viewBox="0 0 85 84" fill="none" xmlns="http://www.w3.org/2000/svg">
<g clip-path="url(#clip0_13_170)">
<path d="M49.9831 30.6367C52.2441 34.0237 52.5805 38.1458 51.2506 41.7675L56.014 43.3747C57.8701 38.3206 57.4057 32.5412 54.2381 27.7962L49.9831 30.6367ZM32.4379 27.3904C38.3128 23.4685 46.1681 24.9219 49.9831 30.6367L54.2381 27.7962C48.8972 19.7955 37.8998 17.7607 29.6749 23.2514L32.4379 27.3904ZM28.7079 44.8392C24.8929 39.1244 26.5629 31.3123 32.4379 27.3904L29.6749 23.2514C21.4499 28.7421 19.1119 39.679 24.4528 47.6797L28.7079 44.8392ZM38.5016 50.2781C34.6467 50.1176 30.9689 48.2261 28.7079 44.8392L24.4528 47.6797C27.6204 52.4246 32.7798 55.0698 38.1595 55.2937L38.5016 50.2781ZM50.6723 59.3252C48.4932 56.2079 45.7406 53.5426 42.5625 51.4583L39.6852 55.6642C42.3463 57.4096 44.6512 59.6412 46.476 62.2516L50.6723 59.3252ZM54.9251 54.895C53.7118 56.9683 51.5966 58.3803 49.2165 58.7058L49.7849 63.6783C53.752 63.1356 57.2769 60.7825 59.2995 57.3267L54.9251 54.895ZM50.7833 45.9705C51.4895 49.7048 52.8955 53.2691 54.9389 56.4771L59.2506 53.7238C57.5397 51.0374 56.3625 48.053 55.771 44.926L50.7833 45.9705ZM59.2995 57.3267C59.9775 56.1681 59.9245 54.7817 59.2506 53.7238L54.9389 56.4771C54.652 56.0265 54.619 55.4182 54.9251 54.895L59.2995 57.3267ZM46.476 62.2516C47.1947 63.2796 48.4548 63.8602 49.7849 63.6783L49.2165 58.7058C49.8171 58.6237 50.3663 58.8875 50.6723 59.3252L46.476 62.2516ZM38.1595 55.2937C38.6367 55.3134 38.916 55.3256 39.1188 55.3425C39.3227 55.3596 39.2939 55.3711 39.1851 55.3363L40.8544 50.5552C40.1227 50.3215 39.2193 50.3079 38.5016 50.2781L38.1595 55.2937ZM42.5625 51.4583C42.134 51.1774 41.5685 50.7834 40.8544 50.5552L39.1851 55.3363C39.1323 55.3194 39.114 55.3035 39.1794 55.3413C39.2186 55.3639 39.2748 55.3981 39.3621 55.4538C39.4505 55.5104 39.5516 55.5766 39.6852 55.6642L42.5625 51.4583ZM51.2506 41.7675C51.0028 42.4417 50.6689 43.2813 50.6043 44.0466L55.6599 44.3384C55.6503 44.4522 55.6288 44.4743 55.6912 44.2795C55.7533 44.0858 55.8492 43.8231 56.014 43.3747L51.2506 41.7675ZM55.771 44.926C55.7415 44.7689 55.7189 44.6502 55.7006 44.5469C55.6827 44.4449 55.6725 44.3799 55.6668 44.335C55.6571 44.2601 55.6645 44.2832 55.6599 44.3384L50.6043 44.0466C50.5411 44.7936 50.6883 45.467 50.7833 45.9705L55.771 44.926Z" fill="#FFF9DC"/>
<path d="M54.0006 45.9052C51.8199 50.9828 46.7945 54.3375 41.269 54.4043" stroke="#FFF9DC" stroke-width="5"/>
</g>
<defs>
<clipPath id="clip0_13_170">
<rect width="61.3923" height="59.7183" fill="white" transform="translate(0 34.0859) rotate(-33.7255)"/>
</clipPath>
</defs>
</svg>
