<svg width="12" height="18" viewBox="0 0 12 18" fill="none" xmlns="http://www.w3.org/2000/svg">
<path d="M11.7364 0.213422C11.9054 0.35295 12 0.540255 12 0.735297C12 0.93034 11.9054 1.11764 11.7364 1.25717L2.29496 9.06811L11.7364 16.8775C11.9054 17.017 12 17.2043 12 17.3994C12 17.5944 11.9054 17.7817 11.7364 17.9212C11.6543 17.9893 11.556 18.0433 11.4476 18.0803C11.3391 18.1172 11.2225 18.1362 11.1048 18.1362C10.987 18.1362 10.8705 18.1172 10.762 18.0803C10.6535 18.0433 10.5553 17.9893 10.4731 17.9212L0.433023 9.61342C0.256684 9.46753 0.157992 9.27185 0.157992 9.06811C0.157992 8.86437 0.256684 8.66869 0.433023 8.5228L10.4731 0.214985C10.5553 0.146948 10.6535 0.0928716 10.762 0.0559475C10.8705 0.0190235 10.987 0 11.1048 0C11.2225 0 11.3391 0.0190235 11.4476 0.0559475C11.556 0.0928716 11.6543 0.146948 11.7364 0.214985V0.213422Z" fill="#EB1D36"/>
</svg>
